Encode_Cond_Bd_sup.ufo
<glyph name="ampersand" format="1">
  <advance width="513.478580332"/>
  <unicode hex="0026"/>
  <outline>
    <contour>
      <point x="513.478580332" y="105.668056048" type="line"/>
      <point x="220.4836342" y="309.202480182" type="line" smooth="yes"/>
      <point x="209.804032405" y="316.958093882"/>
      <point x="202.138949031" y="327.390237285"/>
      <point x="202.138949031" y="343.52368695" type="curve" smooth="yes"/>
      <point x="202.138949031" y="368.209096007"/>
      <point x="220.642778454" y="384.666810546"/>
      <point x="281.999456571" y="384.666810546" type="curve" smooth="yes"/>
      <point x="304.48536897" y="384.666810546"/>
      <point x="334.250160153" y="381.022137226"/>
      <point x="353.953415951" y="377.31903518" type="curve"/>
      <point x="353.953415951" y="498.887988739" type="line"/>
      <point x="328.424176236" y="503.619988632"/>
      <point x="300.778361158" y="507.088213021"/>
      <point x="266.647683149" y="507.088213021" type="curve" smooth="yes"/>
      <point x="119.414159684" y="507.088213021"/>
      <point x="50.496325396" y="443.719500635"/>
      <point x="50.496325396" y="342.847686965" type="curve" smooth="yes"/>
      <point x="50.496325396" y="290.913708344"/>
      <point x="71.5245414452" y="245.94481149"/>
      <point x="141.752931536" y="196.774424286" type="curve" smooth="yes"/>
      <point x="434.747877668" y="-6.75999984741" type="line"/>
    </contour>
    <contour>
      <point x="438.353359019" y="233.048196812" type="curve" smooth="yes"/>
      <point x="438.353359019" y="256.85484947"/>
      <point x="435.046960246" y="286.069502005"/>
      <point x="429.493650751" y="312.668379068" type="curve"/>
      <point x="309.478925171" y="312.668379068" type="line"/>
      <point x="314.899498566" y="286.069502005"/>
      <point x="318.07316124" y="256.090625019"/>
      <point x="318.07316124" y="231.607972377" type="curve" smooth="yes"/>
      <point x="318.07316124" y="131.413321443"/>
      <point x="274.962042572" y="101.052913608"/>
      <point x="224.987058607" y="101.052913608" type="curve" smooth="yes"/>
      <point x="187.318120006" y="101.052913608"/>
      <point x="164.583540598" y="120.096607882"/>
      <point x="164.583540598" y="155.392934777" type="curve" smooth="yes"/>
      <point x="164.583540598" y="178.227955563"/>
      <point x="171.05399908" y="193.56854779"/>
      <point x="179.629029218" y="207.881404922" type="curve"/>
      <point x="102.483957521" y="264.256402556" type="line"/>
      <point x="56.4622476359" y="250.472892216"/>
      <point x="14.5289486712" y="204.093566665"/>
      <point x="14.5289486712" y="137.316221368" type="curve" smooth="yes"/>
      <point x="14.5289486712" y="50.0239988708"/>
      <point x="78.6778863539" y="-6.08399986267"/>
      <point x="206.857430068" y="-6.08399986267" type="curve" smooth="yes"/>
      <point x="347.871562802" y="-6.08399986267"/>
      <point x="438.353359019" y="74.4791812778"/>
    </contour>
  </outline>
</glyph>
<glyph name="zero" format="1">
  <advance width="410.041462703"/>
  <unicode hex="0030"/>
  <outline>
    <contour>
      <point x="391.933440836" y="250.119994354" type="curve" smooth="yes"/>
      <point x="391.933440836" y="427.671949932"/>
      <point x="327.251158015" y="507.088213021"/>
      <point x="205.020731352" y="507.088213021" type="curve" smooth="yes"/>
      <point x="82.7903046877" y="507.088213021"/>
      <point x="18.1080218669" y="427.671949932"/>
      <point x="18.1080218669" y="250.119994354" type="curve" smooth="yes"/>
      <point x="18.1080218669" y="72.5680387764"/>
      <point x="82.6575685885" y="-6.84822431289"/>
      <point x="205.020731352" y="-6.84822431289" type="curve" smooth="yes"/>
      <point x="327.383894115" y="-6.84822431289"/>
      <point x="391.933440836" y="72.5680387764"/>
    </contour>
    <contour>
      <point x="164.986550379" y="249.943545423" type="curve" smooth="yes"/>
      <point x="164.986550379" y="357.246443059"/>
      <point x="174.886540767" y="386.195259447"/>
      <point x="205.020731352" y="386.195259447" type="curve" smooth="yes"/>
      <point x="235.94893779" y="386.195259447"/>
      <point x="245.054912324" y="357.246443059"/>
      <point x="245.054912324" y="250.296443285" type="curve" smooth="yes"/>
      <point x="245.054912324" y="142.993545649"/>
      <point x="235.94893779" y="114.044729262"/>
      <point x="205.020731352" y="114.044729262" type="curve" smooth="yes"/>
      <point x="174.886540767" y="114.044729262"/>
      <point x="164.986550379" y="142.993545649"/>
    </contour>
  </outline>
</glyph>
<glyph name="one" format="1">
  <advance width="410.041462703"/>
  <unicode hex="0031"/>
  <outline>
    <contour>
      <point x="295.652068857" y="0.0" type="line"/>
      <point x="295.652068857" y="502.356213128" type="line"/>
      <point x="202.892152282" y="502.356213128" type="line"/>
      <point x="68.7754952238" y="421.384030903" type="line"/>
      <point x="68.7754952238" y="286.323710636" type="line"/>
      <point x="202.892152282" y="367.295892861" type="line"/>
      <point x="144.537988878" y="413.149359874" type="line"/>
      <point x="144.537988878" y="0.0" type="line"/>
    </contour>
    <contour>
      <point x="374.993635707" y="0.0" type="line"/>
      <point x="374.993635707" y="127.859198092" type="line"/>
      <point x="61.8900232549" y="127.859198092" type="line"/>
      <point x="61.8900232549" y="0.0" type="line"/>
    </contour>
  </outline>
</glyph>
<glyph name="two" format="1">
  <advance width="410.041462703"/>
  <unicode hex="0032"/>
  <outline>
    <contour>
      <point x="373.683079905" y="0.0" type="line"/>
      <point x="373.683079905" y="127.859198092" type="line"/>
      <point x="210.243053306" y="127.859198092" type="line"/>
      <point x="216.988586952" y="92.9993425175" type="line"/>
      <point x="290.624902277" y="194.099057334" type="line" smooth="yes"/>
      <point x="334.928245097" y="253.58589324"/>
      <point x="352.650062373" y="305.667687804"/>
      <point x="352.517326274" y="350.253891058" type="curve" smooth="yes"/>
      <point x="352.251854075" y="462.765520412"/>
      <point x="276.718821499" y="507.088213021"/>
      <point x="153.561642882" y="507.088213021" type="curve" smooth="yes"/>
      <point x="116.131768325" y="507.088213021"/>
      <point x="65.2036242522" y="500.328213174"/>
      <point x="34.7799540561" y="490.364662334" type="curve"/>
      <point x="34.7799540561" y="368.795708774" type="line"/>
      <point x="62.4209676517" y="379.347035134"/>
      <point x="97.3408600311" y="384.666810546"/>
      <point x="128.153135559" y="384.666810546" type="curve" smooth="yes"/>
      <point x="184.752920777" y="384.666810546"/>
      <point x="203.124014101" y="366.532831163"/>
      <point x="203.124014101" y="337.262075404" type="curve" smooth="yes"/>
      <point x="203.124014101" y="309.723687713"/>
      <point x="187.916980486" y="276.659279938"/>
      <point x="151.94720302" y="229.017341635" type="curve" smooth="yes"/>
      <point x="41.6582238009" y="82.3002002144" type="line"/>
      <point x="41.6582238009" y="0.0" type="line"/>
    </contour>
  </outline>
</glyph>
<glyph name="three" format="1">
  <advance width="410.041462703"/>
  <unicode hex="0033"/>
  <outline>
    <contour>
      <point x="369.968869869" y="141.343588289" type="curve" smooth="yes"/>
      <point x="369.968869869" y="205.004444308"/>
      <point x="337.573364115" y="247.650872073"/>
      <point x="270.265168207" y="259.054647348" type="curve"/>
      <point x="270.397904306" y="255.439769767" type="line"/>
      <point x="324.082296824" y="267.25487163"/>
      <point x="355.686187465" y="309.724850464"/>
      <point x="355.686187465" y="370.887951214" type="curve" smooth="yes"/>
      <point x="355.686187465" y="458.474642846"/>
      <point x="290.472960247" y="507.088213021"/>
      <point x="164.277255797" y="507.088213021" type="curve" smooth="yes"/>
      <point x="122.479093673" y="507.088213021"/>
      <point x="71.9491578978" y="500.328213174"/>
      <point x="40.0701920932" y="490.364662334" type="curve"/>
      <point x="40.0701920932" y="377.202177727" type="line"/>
      <point x="68.2397493443" y="386.989279636"/>
      <point x="107.658264648" y="393.073279499"/>
      <point x="141.118059936" y="393.073279499" type="curve" smooth="yes"/>
      <point x="192.420404893" y="393.073279499"/>
      <point x="211.850986269" y="380.495115937"/>
      <point x="211.850986269" y="353.222564393" type="curve" smooth="yes"/>
      <point x="211.850986269" y="328.096033009"/>
      <point x="195.869142731" y="313.461236505"/>
      <point x="144.977009779" y="313.461236505" type="curve" smooth="yes"/>
      <point x="75.9048327188" y="313.461236505" type="line"/>
      <point x="75.9048327188" y="196.389405182" type="line"/>
      <point x="144.96260533" y="196.389405182" type="line" smooth="yes"/>
      <point x="203.794896821" y="196.389405182"/>
      <point x="226.133668673" y="182.518833128"/>
      <point x="226.133668673" y="152.130955058" type="curve" smooth="yes"/>
      <point x="226.133668673" y="121.419974864"/>
      <point x="206.710289521" y="107.16670921"/>
      <point x="149.058218475" y="107.16670921" type="curve" smooth="yes"/>
      <point x="117.582262451" y="107.16670921"/>
      <point x="70.7569337463" y="111.722260172"/>
      <point x="36.2376504059" y="119.980913181" type="curve"/>
      <point x="36.2376504059" y="6.81842857382" type="line"/>
      <point x="73.6699257046" y="-2.29267335065"/>
      <point x="113.614583923" y="-6.84822431289"/>
      <point x="152.895561645" y="-6.84822431289" type="curve" smooth="yes"/>
      <point x="290.999103161" y="-6.84822431289"/>
      <point x="369.968869869" y="46.4973457553"/>
    </contour>
  </outline>
</glyph>
<glyph name="four" format="1">
  <advance width="410.041462703"/>
  <unicode hex="0034"/>
  <outline>
    <contour>
      <point x="399.596123469" y="92.3449990096" type="line"/>
      <point x="399.596123469" y="204.155483647" type="line"/>
      <point x="139.592447504" y="204.155483647" type="line"/>
      <point x="159.307707009" y="174.73342369" type="line"/>
      <point x="290.347426372" y="500.239988708" type="line"/>
      <point x="148.365729083" y="500.239988708" type="line"/>
      <point x="11.6351626437" y="174.645199224" type="line"/>
      <point x="11.6351626437" y="92.3449990096" type="line"/>
    </contour>
    <contour>
      <point x="349.348465082" y="0.0" type="line"/>
      <point x="349.348465082" y="331.239992523" type="line"/>
      <point x="231.447914124" y="331.239992523" type="line"/>
      <point x="216.496749741" y="204.155483647" type="line"/>
      <point x="216.496749741" y="0.0" type="line"/>
    </contour>
  </outline>
</glyph>
<glyph name="five" format="1">
  <advance width="410.041462703"/>
  <unicode hex="0035"/>
  <outline>
    <contour>
      <point x="374.332355953" y="156.68650602" type="curve" smooth="yes"/>
      <point x="374.332355953" y="257.117197363"/>
      <point x="314.684441936" y="305.377869676"/>
      <point x="172.3597534" y="315.194767324" type="curve" smooth="yes"/>
      <point x="134.546074993" y="317.810542797" type="line"/>
      <point x="198.719020089" y="268.724891804" type="line"/>
      <point x="209.164359323" y="448.332317572" type="line"/>
      <point x="145.252084942" y="380.023035119" type="line"/>
      <point x="357.274219173" y="380.023035119" type="line"/>
      <point x="357.274219173" y="500.239988708" type="line"/>
      <point x="70.6217969058" y="500.239988708" type="line"/>
      <point x="54.6183466953" y="206.088282625" type="line"/>
      <point x="91.6380092482" y="203.472507152" type="line" smooth="yes"/>
      <point x="210.941039506" y="195.095833939"/>
      <point x="230.497154757" y="180.754343819"/>
      <point x="230.497154757" y="150.660934884" type="curve" smooth="yes"/>
      <point x="230.497154757" y="121.067077002"/>
      <point x="209.085134858" y="107.16670921"/>
      <point x="155.538279922" y="107.16670921" type="curve" smooth="yes"/>
      <point x="124.460532195" y="107.16670921"/>
      <point x="77.7679395903" y="112.398260157"/>
      <point x="42.9831840515" y="121.509362081" type="curve"/>
      <point x="42.9831840515" y="8.34687747425" type="line"/>
      <point x="80.6809315486" y="-1.52844890044"/>
      <point x="120.360117568" y="-6.84822431289"/>
      <point x="159.508359191" y="-6.84822431289" type="curve" smooth="yes"/>
      <point x="294.433436551" y="-6.84822431289"/>
      <point x="374.332355953" y="46.3208968243"/>
    </contour>
  </outline>
</glyph>
<glyph name="six" format="1">
  <advance width="410.041462703"/>
  <unicode hex="0036"/>
  <outline>
    <contour>
      <point x="392.720254466" y="159.302281493" type="curve" smooth="yes"/>
      <point x="392.720254466" y="266.669421614"/>
      <point x="322.484662151" y="311.961420592"/>
      <point x="246.169617428" y="311.961420592" type="curve" smooth="yes"/>
      <point x="207.557121684" y="311.961420592"/>
      <point x="169.603504954" y="297.119216667"/>
      <point x="149.369304759" y="268.757013047" type="curve"/>
      <point x="149.369304759" y="165.823915428" type="line"/>
      <point x="166.823249095" y="192.59807867"/>
      <point x="190.614915814" y="203.296058221"/>
      <point x="214.674455473" y="203.296058221" type="curve" smooth="yes"/>
      <point x="240.179687774" y="203.296058221"/>
      <point x="256.825211809" y="187.837445789"/>
      <point x="256.825211809" y="154.129159273" type="curve" smooth="yes"/>
      <point x="256.825211809" y="118.80419939"/>
      <point x="239.516007278" y="103.345586959"/>
      <point x="218.108788862" y="103.345586959" type="curve" smooth="yes"/>
      <point x="189.828102184" y="103.345586959"/>
      <point x="173.713522547" y="121.977954644"/>
      <point x="173.713522547" y="209.440812313" type="curve" smooth="yes"/>
      <point x="173.713522547" y="272.342094889" type="line" smooth="yes"/>
      <point x="173.713522547" y="354.572238859"/>
      <point x="207.824994624" y="390.016381698"/>
      <point x="279.892484173" y="390.016381698" type="curve" smooth="yes"/>
      <point x="314.416568996" y="390.016381698"/>
      <point x="338.089904064" y="386.812830705"/>
      <point x="367.32375085" y="378.877279819" type="curve"/>
      <point x="367.32375085" y="495.096662227" type="line"/>
      <point x="343.648015041" y="503.796437563"/>
      <point x="308.991194119" y="507.088213021"/>
      <point x="274.862916852" y="507.088213021" type="curve" smooth="yes"/>
      <point x="124.197460738" y="507.088213021"/>
      <point x="25.908242082" y="423.381072366"/>
      <point x="25.908242082" y="237.805341437" type="curve" smooth="yes"/>
      <point x="25.908242082" y="61.7520390206"/>
      <point x="102.759032685" y="-6.84822431289"/>
      <point x="216.653493254" y="-6.84822431289" type="curve" smooth="yes"/>
      <point x="321.820981655" y="-6.84822431289"/>
      <point x="392.720254466" y="55.2567125696"/>
    </contour>
  </outline>
</glyph>
<glyph name="seven" format="1">
  <advance width="410.041462703"/>
  <unicode hex="0037"/>
  <outline>
    <contour>
      <point x="226.893378823" y="0.0" type="line"/>
      <point x="357.793159863" y="417.939788494" type="line"/>
      <point x="357.793159863" y="500.239988708" type="line"/>
      <point x="36.1121165308" y="500.239988708" type="line"/>
      <point x="36.1121165308" y="372.380790616" type="line"/>
      <point x="265.170780869" y="372.380790616" type="line"/>
      <point x="209.061127445" y="417.851564029" type="line"/>
      <point x="70.353923966" y="0.0" type="line"/>
    </contour>
  </outline>
</glyph>
<glyph name="eight" format="1">
  <advance width="410.041462703"/>
  <unicode hex="0038"/>
  <outline>
    <contour>
      <point x="393.914879359" y="141.638057425" type="curve" smooth="yes"/>
      <point x="393.914879359" y="216.262729143"/>
      <point x="361.77764358" y="260.99674834"/>
      <point x="248.025522075" y="303.467889926" type="curve" smooth="yes"/>
      <point x="176.216302501" y="331.1838893"/>
      <point x="167.363796458" y="342.233603962"/>
      <point x="167.363796458" y="367.243277894" type="curve" smooth="yes"/>
      <point x="167.363796458" y="388.167156178"/>
      <point x="183.62071516" y="403.772421802"/>
      <point x="213.226362088" y="403.772421802" type="curve" smooth="yes"/>
      <point x="240.317225356" y="403.772421802"/>
      <point x="255.910463562" y="390.959380583"/>
      <point x="255.910463562" y="365.97950239" type="curve" smooth="yes"/>
      <point x="255.910463562" y="340.293828473"/>
      <point x="242.559334595" y="318.721420439"/>
      <point x="219.436149854" y="297.295665598" type="curve"/>
      <point x="304.779650065" y="256.498463352" type="line"/>
      <point x="366.416204828" y="289.740482809"/>
      <point x="383.204067927" y="334.180032871"/>
      <point x="383.204067927" y="377.442869143" type="curve" smooth="yes"/>
      <point x="383.204067927" y="457.65198967"/>
      <point x="316.402809001" y="507.088213021"/>
      <point x="211.638330381" y="507.088213021" type="curve" smooth="yes"/>
      <point x="92.050621994" y="507.088213021"/>
      <point x="25.2493630687" y="450.009745168"/>
      <point x="25.2493630687" y="362.746155658" type="curve" smooth="yes"/>
      <point x="25.2493630687" y="291.090157275"/>
      <point x="61.2239420176" y="236.774118087"/>
      <point x="174.845728164" y="197.947649821" type="curve" smooth="yes"/>
      <point x="238.582053101" y="175.581221598"/>
      <point x="253.388477678" y="160.945262343"/>
      <point x="253.388477678" y="135.024710769" type="curve" smooth="yes"/>
      <point x="253.388477678" y="111.396832546"/>
      <point x="239.120199722" y="96.4675669067"/>
      <point x="205.01833061" y="96.4675669067" type="curve" smooth="yes"/>
      <point x="172.246223232" y="96.4675669067"/>
      <point x="155.064953318" y="112.748832515"/>
      <point x="155.064953318" y="141.285159563" type="curve" smooth="yes"/>
      <point x="155.064953318" y="163.472813351"/>
      <point x="167.219056652" y="193.392098859"/>
      <point x="198.019328473" y="207.73475173" type="curve"/>
      <point x="107.778997041" y="248.355505045" type="line"/>
      <point x="44.556811311" y="221.373934381"/>
      <point x="15.3325674905" y="178.66907789"/>
      <point x="15.3325674905" y="128.293343909" type="curve" smooth="yes"/>
      <point x="15.3325674905" y="51.0826924566"/>
      <point x="78.2940825044" y="-6.84822431289"/>
      <point x="205.01833061" y="-6.84822431289" type="curve" smooth="yes"/>
      <point x="323.80722166" y="-6.84822431289"/>
      <point x="393.914879359" y="53.7866923955"/>
    </contour>
  </outline>
</glyph>
<glyph name="nine" format="1">
  <advance width="410.041462703"/>
  <unicode hex="0039"/>
  <outline>
    <contour>
      <point x="17.3212082371" y="340.937707215" type="curve" smooth="yes"/>
      <point x="17.3212082371" y="233.570567094"/>
      <point x="87.5568005521" y="188.278568116"/>
      <point x="163.871845275" y="188.278568116" type="curve" smooth="yes"/>
      <point x="202.484341019" y="188.278568116"/>
      <point x="240.437957749" y="203.120772042"/>
      <point x="260.672157944" y="231.482975662" type="curve"/>
      <point x="260.672157944" y="334.41607328" type="line"/>
      <point x="243.218213608" y="307.641910039"/>
      <point x="219.426546889" y="296.943930488"/>
      <point x="195.36700723" y="296.943930488" type="curve" smooth="yes"/>
      <point x="169.861774929" y="296.943930488"/>
      <point x="153.216250894" y="312.402542919"/>
      <point x="153.216250894" y="346.110829436" type="curve" smooth="yes"/>
      <point x="153.216250894" y="381.435789318"/>
      <point x="170.525455425" y="396.89440175"/>
      <point x="191.932673841" y="396.89440175" type="curve" smooth="yes"/>
      <point x="220.213360519" y="396.89440175"/>
      <point x="236.327940156" y="378.262034064"/>
      <point x="236.327940156" y="290.799176395" type="curve" smooth="yes"/>
      <point x="236.327940156" y="227.89789382" type="line" smooth="yes"/>
      <point x="236.327940156" y="145.667749849"/>
      <point x="202.216468079" y="110.223607011"/>
      <point x="130.14897853" y="110.223607011" type="curve" smooth="yes"/>
      <point x="95.6248937069" y="110.223607011"/>
      <point x="71.9515586391" y="113.427158003"/>
      <point x="42.7177118531" y="121.362708889" type="curve"/>
      <point x="42.7177118531" y="5.1433264815" type="line"/>
      <point x="66.3934476623" y="-3.55644885466"/>
      <point x="101.050268585" y="-6.84822431289"/>
      <point x="135.178545851" y="-6.84822431289" type="curve" smooth="yes"/>
      <point x="285.844001965" y="-6.84822431289"/>
      <point x="384.133220621" y="76.8589163422"/>
      <point x="384.133220621" y="262.434647271" type="curve" smooth="yes"/>
      <point x="384.133220621" y="438.487949688"/>
      <point x="307.282430018" y="507.088213021"/>
      <point x="193.387969449" y="507.088213021" type="curve" smooth="yes"/>
      <point x="88.2204810481" y="507.088213021"/>
      <point x="17.3212082371" y="444.983276139"/>
    </contour>
  </outline>
</glyph>
<glyph name="A" format="1">
  <advance width="441.114408947"/>
  <unicode hex="0041"/>
  <outline>
    <contour>
      <point x="220.490836424" y="513.759988403" type="move" name="top"/>
    </contour>
    <contour>
      <point x="446.016041652" y="0.0" type="move" name="ogonek"/>
    </contour>
    <contour>
      <point x="220.490836424" y="0.0" type="move" name="bottom"/>
    </contour>
    <contour>
      <point x="141.182879953" y="0.0" type="line"/>
      <point x="225.385266905" y="435.516950849" type="line"/>
      <point x="212.685814726" y="435.516950849" type="line"/>
      <point x="298.476233386" y="0.0" type="line"/>
      <point x="446.016041652" y="0.0" type="line"/>
      <point x="334.423708855" y="500.239988708" type="line"/>
      <point x="106.690700092" y="500.239988708" type="line"/>
      <point x="-4.90163270494" y="0.0" type="line"/>
    </contour>
    <contour>
      <point x="358.982983273" y="108.155346552" type="line"/>
      <point x="331.725773527" y="231.340973477" type="line"/>
      <point x="108.594619567" y="231.340973477" type="line"/>
      <point x="81.3374098206" y="108.155346552" type="line"/>
    </contour>
  </outline>
</glyph>
<glyph name="B" format="1">
  <advance width="421.140879467"/>
  <unicode hex="0042"/>
  <outline>
    <contour>
      <point x="207.125303008" y="500.239988708" type="move" name="top"/>
    </contour>
    <contour>
      <point x="207.125303008" y="0.0" type="move" name="bottom"/>
    </contour>
    <contour>
      <point x="415.464436839" y="142.519139328" type="curve" smooth="yes"/>
      <point x="415.464436839" y="215.204035557"/>
      <point x="374.197219112" y="249.179320973"/>
      <point x="326.737018808" y="259.40754521" type="curve"/>
      <point x="326.737018808" y="255.439769767" type="line"/>
      <point x="368.243300579" y="267.695993958"/>
      <point x="401.577561992" y="309.636625999"/>
      <point x="401.577561992" y="364.304400297" type="curve" smooth="yes"/>
      <point x="401.577561992" y="464.411989517"/>
      <point x="331.998447949" y="507.264661952"/>
      <point x="186.763168196" y="507.264661952" type="curve" smooth="yes"/>
      <point x="135.707089507" y="507.264661952"/>
      <point x="72.3377632299" y="500.151764243"/>
      <point x="24.0523374345" y="489.394193214" type="curve"/>
      <point x="24.0523374345" y="5.17312222057" type="line"/>
      <point x="66.2487078563" y="-2.02799995422"/>
      <point x="128.428210723" y="-7.2011221748"/>
      <point x="168.771077239" y="-7.2011221748" type="curve" smooth="yes"/>
      <point x="341.389100613" y="-7.2011221748"/>
      <point x="415.464436839" y="44.1164479391"/>
    </contour>
    <contour>
      <point x="172.784369852" y="107.136913471" type="curve"/>
      <point x="172.784369852" y="390.986850818" type="line"/>
      <point x="187.194986873" y="393.514401826"/>
      <point x="199.090820232" y="394.77817733"/>
      <point x="213.231163571" y="394.77817733" type="curve" smooth="yes"/>
      <point x="246.384674058" y="394.77817733"/>
      <point x="259.330392504" y="382.699564822"/>
      <point x="259.330392504" y="353.605257994" type="curve" smooth="yes"/>
      <point x="259.330392504" y="324.304706497"/>
      <point x="245.85132892" y="313.461236505"/>
      <point x="207.537915754" y="313.461236505" type="curve" smooth="yes"/>
      <point x="161.142004985" y="313.461236505" type="line"/>
      <point x="161.142004985" y="196.389405182" type="line"/>
      <point x="215.20539987" y="196.389405182" type="line" smooth="yes"/>
      <point x="255.509854523" y="196.389405182"/>
      <point x="273.217267351" y="183.929261824"/>
      <point x="273.217267351" y="151.866281661" type="curve" smooth="yes"/>
      <point x="273.217267351" y="118.274852598"/>
      <point x="257.496094529" y="105.285362447"/>
      <point x="213.103228955" y="105.285362447" type="curve" smooth="yes"/>
      <point x="200.413379741" y="105.285362447"/>
      <point x="190.371050288" y="105.961362432"/>
    </contour>
  </outline>
</glyph>
<glyph name="C" format="1">
  <advance width="376.178657635"/>
  <unicode hex="0043"/>
  <outline>
    <contour>
      <point x="234.117040556" y="513.759988403" type="move" name="top"/>
    </contour>
    <contour>
      <point x="233.45336006" y="0.0" type="move" name="bottom"/>
    </contour>
    <contour>
      <point x="363.476804715" y="9.28755085542" type="curve"/>
      <point x="363.476804715" y="131.620728865" type="line"/>
      <point x="334.515632351" y="122.509626941"/>
      <point x="306.609146557" y="116.337402612"/>
      <point x="286.777956142" y="116.337402612" type="curve" smooth="yes"/>
      <point x="206.507236598" y="116.337402612"/>
      <point x="172.929109658" y="147.843565747"/>
      <point x="172.929109658" y="250.031769889" type="curve" smooth="yes"/>
      <point x="172.929109658" y="349.016423038"/>
      <point x="210.21424441" y="383.902586096"/>
      <point x="286.247011745" y="383.902586096" type="curve" smooth="yes"/>
      <point x="313.622553142" y="383.902586096"/>
      <point x="339.941007229" y="379.670137257"/>
      <point x="363.476804715" y="375.056157568" type="curve"/>
      <point x="363.476804715" y="497.389335578" type="line"/>
      <point x="335.835791119" y="503.884662029"/>
      <point x="303.828890698" y="507.088213021"/>
      <point x="271.423781979" y="507.088213021" type="curve" smooth="yes"/>
      <point x="111.102201003" y="507.088213021"/>
      <point x="14.9343591929" y="421.646378796"/>
      <point x="14.9343591929" y="248.679769919" type="curve" smooth="yes"/>
      <point x="14.9343591929" y="68.4238144025"/>
      <point x="105.939897583" y="-6.84822431289"/>
      <point x="263.618760281" y="-6.84822431289" type="curve" smooth="yes"/>
      <point x="297.872571423" y="-6.84822431289"/>
      <point x="338.480910138" y="-0.940673381172"/>
    </contour>
  </outline>
</glyph>
<glyph name="D" format="1">
  <advance width="452.093093319"/>
  <unicode hex="0044"/>
  <outline>
    <contour>
      <point x="24.0523374345" y="257.555994186" type="move" name="stroke"/>
    </contour>
    <contour>
      <point x="211.104985243" y="513.759988403" type="move" name="top"/>
    </contour>
    <contour>
      <point x="220.488435683" y="250.119994354" type="move" name="center"/>
    </contour>
    <contour>
      <point x="219.045143781" y="0.0" type="move" name="bottom"/>
    </contour>
    <contour>
      <point x="437.158734126" y="250.119994354" type="curve" smooth="yes"/>
      <point x="437.158734126" y="427.496663753"/>
      <point x="351.578570614" y="507.264661952"/>
      <point x="179.491491636" y="507.264661952" type="curve" smooth="yes"/>
      <point x="123.796851699" y="507.264661952"/>
      <point x="72.3377632299" y="500.151764243"/>
      <point x="24.0523374345" y="489.305968748" type="curve"/>
      <point x="24.0523374345" y="0.587775519264" type="line"/>
      <point x="64.7910115064" y="-4.32067330488"/>
      <point x="115.726357803" y="-7.2011221748"/>
      <point x="159.911368972" y="-7.2011221748" type="curve" smooth="yes"/>
      <point x="347.21508453" y="-7.2011221748"/>
      <point x="437.158734126" y="71.920671779"/>
    </contour>
    <contour>
      <point x="175.166417414" y="114.779157973" type="curve"/>
      <point x="175.166417414" y="383.25638185" type="line"/>
      <point x="180.048844188" y="385.107932874"/>
      <point x="191.944677547" y="386.371708378"/>
      <point x="198.813344327" y="386.371708378" type="curve" smooth="yes"/>
      <point x="247.569695985" y="386.371708378"/>
      <point x="283.13406293" y="357.923605796"/>
      <point x="283.13406293" y="250.119994354" type="curve" smooth="yes"/>
      <point x="283.13406293" y="143.52172969"/>
      <point x="251.940384293" y="114.45605585"/>
      <point x="202.65548898" y="114.45605585" type="curve" smooth="yes"/>
      <point x="198.036133663" y="114.45605585"/>
      <point x="188.254474925" y="114.367831385"/>
    </contour>
  </outline>
</glyph>
<glyph name="E" format="1">
  <advance width="385.040766643"/>
  <unicode hex="0045"/>
  <outline>
    <contour>
      <point x="11.9030355835" y="500.239988708" type="move" name="topleft"/>
    </contour>
    <contour>
      <point x="199.716088866" y="513.759988403" type="move" name="top"/>
    </contour>
    <contour>
      <point x="337.819630383" y="0.0" type="move" name="ogonek"/>
    </contour>
    <contour>
      <point x="199.716088866" y="0.0" type="move" name="bottom"/>
    </contour>
    <contour>
      <point x="364.270820568" y="0.0" type="line"/>
      <point x="364.270820568" y="126.242524726" type="line"/>
      <point x="172.784369852" y="126.242524726" type="line"/>
      <point x="172.784369852" y="373.997463982" type="line"/>
      <point x="360.964421795" y="373.997463982" type="line"/>
      <point x="360.964421795" y="500.239988708" type="line"/>
      <point x="24.0523374345" y="500.239988708" type="line"/>
      <point x="24.0523374345" y="0.0" type="line"/>
    </contour>
    <contour>
      <point x="325.64872186" y="192.568282931" type="line"/>
      <point x="325.64872186" y="317.282358756" type="line"/>
      <point x="130.438458142" y="317.282358756" type="line"/>
      <point x="130.438458142" y="192.568282931" type="line"/>
    </contour>
  </outline>
</glyph>
<glyph name="F" format="1">
  <advance width="364.403556668"/>
  <unicode hex="0046"/>
  <outline>
    <contour>
      <point x="175.166417414" y="0.0" type="line"/>
      <point x="175.166417414" y="370.940566182" type="line"/>
      <point x="361.628102291" y="370.940566182" type="line"/>
      <point x="361.628102291" y="500.239988708" type="line"/>
      <point x="24.0523374345" y="500.239988708" type="line"/>
      <point x="24.0523374345" y="0.0" type="line"/>
    </contour>
    <contour>
      <point x="328.694449917" y="171.934222775" type="line"/>
      <point x="328.694449917" y="301.233645302" type="line"/>
      <point x="130.438458142" y="301.233645302" type="line"/>
      <point x="130.438458142" y="171.934222775" type="line"/>
    </contour>
  </outline>
</glyph>
<glyph name="G" format="1">
  <advance width="423.650861645"/>
  <unicode hex="0047"/>
  <outline>
    <contour>
      <point x="256.740490537" y="513.759988403" type="move" name="top"/>
    </contour>
    <contour>
      <point x="256.740490537" y="0.0" type="move" name="bottom"/>
    </contour>
    <contour>
      <point x="409.913528087" y="3.20355099275" type="curve"/>
      <point x="409.913528087" y="243.359994507" type="line"/>
      <point x="270.709685915" y="243.359994507" type="line"/>
      <point x="270.709685915" y="83.8286491149" type="line"/>
      <point x="316.0965242" y="118.159157897" type="line"/>
      <point x="304.463762298" y="116.484055804"/>
      <point x="286.611609664" y="115.2202803"/>
      <point x="271.40697679" y="115.2202803" type="curve" smooth="yes"/>
      <point x="208.225603663" y="115.2202803"/>
      <point x="171.341077951" y="150.870667809"/>
      <point x="171.341077951" y="247.915545469" type="curve" smooth="yes"/>
      <point x="171.341077951" y="348.928198572"/>
      <point x="208.754147319" y="383.902586096"/>
      <point x="310.721564891" y="383.902586096" type="curve" smooth="yes"/>
      <point x="341.140433604" y="383.902586096"/>
      <point x="366.927943294" y="378.994137272"/>
      <point x="396.021851757" y="372.763484217" type="curve"/>
      <point x="396.021851757" y="495.096662227" type="line"/>
      <point x="364.410758892" y="503.120437578"/>
      <point x="335.316850429" y="507.088213021"/>
      <point x="292.060991955" y="507.088213021" type="curve" smooth="yes"/>
      <point x="112.024151474" y="507.088213021"/>
      <point x="14.9343591929" y="421.469929865"/>
      <point x="14.9343591929" y="250.20821882" type="curve" smooth="yes"/>
      <point x="14.9343591929" y="75.3602631809"/>
      <point x="107.525528549" y="-7.2011221748"/>
      <point x="288.875325574" y="-7.2011221748" type="curve" smooth="yes"/>
      <point x="325.781457959" y="-7.2011221748"/>
      <point x="371.158693279" y="-2.88044886992"/>
    </contour>
  </outline>
</glyph>
<glyph name="H" format="1">
  <advance width="461.34380766"/>
  <unicode hex="0048"/>
  <outline>
    <contour>
      <point x="8.72697216814" y="500.239988708" type="move" name="topleft"/>
    </contour>
    <contour>
      <point x="231.068911757" y="513.759988403" type="move" name="top"/>
    </contour>
    <contour>
      <point x="231.068911757" y="408.246724809" type="move" name="center"/>
    </contour>
    <contour>
      <point x="231.068911757" y="0.0" type="move" name="bottom"/>
    </contour>
    <contour>
      <point x="175.166417414" y="0.0" type="line"/>
      <point x="175.166417414" y="187.982936229" type="line"/>
      <point x="286.177390246" y="187.982936229" type="line"/>
      <point x="286.177390246" y="0.0" type="line"/>
      <point x="437.291470225" y="0.0" type="line"/>
      <point x="437.291470225" y="500.239988708" type="line"/>
      <point x="286.177390246" y="500.239988708" type="line"/>
      <point x="286.177390246" y="321.867705458" type="line"/>
      <point x="175.166417414" y="321.867705458" type="line"/>
      <point x="175.166417414" y="500.239988708" type="line"/>
      <point x="24.0523374345" y="500.239988708" type="line"/>
      <point x="24.0523374345" y="0.0" type="line"/>
    </contour>
  </outline>
</glyph>
<glyph name="I" format="1">
  <advance width="199.218754849"/>
  <unicode hex="0049"/>
  <outline>
    <contour>
      <point x="99.6093774243" y="513.759988403" type="move" name="top"/>
    </contour>
    <contour>
      <point x="174.37240156" y="0.0" type="move" name="ogonek"/>
    </contour>
    <contour>
      <point x="99.6093774243" y="0.0" type="move" name="bottom"/>
    </contour>
    <contour>
      <point x="175.166417414" y="0.0" type="line"/>
      <point x="175.166417414" y="500.239988708" type="line"/>
      <point x="24.0523374345" y="500.239988708" type="line"/>
      <point x="24.0523374345" y="0.0" type="line"/>
    </contour>
  </outline>
</glyph>
<glyph name="J" format="1">
  <advance width="199.218754849"/>
  <unicode hex="004A"/>
  <outline>
    <contour>
      <point x="99.6093774243" y="513.759988403" type="move" name="top"/>
    </contour>
    <contour>
      <point x="172.51169543" y="0.0" type="move" name="bottom"/>
    </contour>
    <contour>
      <point x="175.166417414" y="111.747404904" type="curve"/>
      <point x="175.166417414" y="500.239988708" type="line"/>
      <point x="24.0523374345" y="500.239988708" type="line"/>
      <point x="24.0523374345" y="104.31024232" type="line" smooth="yes"/>
      <point x="24.0523374345" y="36.6231821323"/>
      <point x="15.4605021069" y="-4.81789885518"/>
      <point x="-19.4521880484" y="-56.0460817519" type="curve"/>
      <point x="78.8634387629" y="-118.741119657" type="line"/>
      <point x="151.225209406" y="-44.439550062"/>
      <point x="175.697361811" y="26.5416110876"/>
    </contour>
  </outline>
</glyph>
<glyph name="K" format="1">
  <advance width="422.473041942"/>
  <unicode hex="004B"/>
  <outline>
    <contour>
      <point x="214.802390089" y="500.239988708" type="move" name="top"/>
    </contour>
    <contour>
      <point x="219.566485212" y="0.0" type="move" name="bottom"/>
    </contour>
    <contour>
      <point x="447.741610942" y="0.0" type="line"/>
      <point x="305.337002616" y="277.660707549" type="line"/>
      <point x="303.748970909" y="236.687056373" type="line"/>
      <point x="436.236783656" y="500.239988708" type="line"/>
      <point x="280.361009295" y="500.239988708" type="line"/>
      <point x="157.531722151" y="253.147096416" type="line"/>
      <point x="287.234477557" y="0.0" type="line"/>
    </contour>
    <contour>
      <point x="175.166417414" y="0.0" type="line"/>
      <point x="175.166417414" y="500.239988708" type="line"/>
      <point x="24.0523374345" y="500.239988708" type="line"/>
      <point x="24.0523374345" y="0.0" type="line"/>
    </contour>
    <contour>
      <point x="209.531357983" y="187.982936229" type="line"/>
      <point x="209.531357983" y="321.955929923" type="line"/>
      <point x="155.583894008" y="321.955929923" type="line"/>
      <point x="155.583894008" y="187.982936229" type="line"/>
    </contour>
  </outline>
</glyph>
<glyph name="L" format="1">
  <advance width="352.232648144"/>
  <unicode hex="004C"/>
  <outline>
    <contour>
      <point x="230.016625929" y="500.239988708" type="move" name="caronalt"/>
    </contour>
    <contour>
      <point x="102.78544084" y="513.759988403" type="move" name="top"/>
    </contour>
    <contour>
      <point x="273.542758084" y="307.465461108" type="move" name="periodcentered"/>
    </contour>
    <contour>
      <point x="102.78544084" y="292.180972104" type="move" name="slash"/>
    </contour>
    <contour>
      <point x="187.414844985" y="0.0" type="move" name="bottom"/>
    </contour>
    <contour>
      <point x="350.910088635" y="0.0" type="line"/>
      <point x="350.910088635" y="129.299422527" type="line"/>
      <point x="175.166417414" y="129.299422527" type="line"/>
      <point x="175.166417414" y="500.239988708" type="line"/>
      <point x="24.0523374345" y="500.239988708" type="line"/>
      <point x="24.0523374345" y="0.0" type="line"/>
    </contour>
  </outline>
</glyph>
<glyph name="M" format="1">
  <advance width="588.591797938"/>
  <unicode hex="004D"/>
  <outline>
    <contour>
      <point x="304.618105069" y="500.239988708" type="move" name="top"/>
    </contour>
    <contour>
      <point x="304.618105069" y="0.0" type="move" name="bottom"/>
    </contour>
    <contour>
      <point x="166.299506923" y="0.0" type="line"/>
      <point x="166.299506923" y="353.09873043" type="line"/>
      <point x="137.722138408" y="353.09873043" type="line"/>
      <point x="236.472679962" y="75.2422429763" type="line"/>
      <point x="352.119117976" y="75.2422429763" type="line"/>
      <point x="445.444284652" y="353.09873043" type="line"/>
      <point x="422.292291016" y="353.09873043" type="line"/>
      <point x="422.292291016" y="0.0" type="line"/>
      <point x="563.216900994" y="0.0" type="line"/>
      <point x="563.216900994" y="500.239988708" type="line"/>
      <point x="376.109036135" y="500.239988708" type="line"/>
      <point x="292.048988248" y="231.260888274" type="line"/>
      <point x="301.835448469" y="231.260888274" type="line"/>
      <point x="212.482761803" y="500.239988708" type="line"/>
      <point x="25.3748969438" y="500.239988708" type="line"/>
      <point x="25.3748969438" y="0.0" type="line"/>
    </contour>
  </outline>
</glyph>
<glyph name="N" format="1">
  <advance width="465.043613248"/>
  <unicode hex="004E"/>
  <outline>
    <contour>
      <point x="232.521806624" y="513.759988403" type="move" name="top"/>
    </contour>
    <contour>
      <point x="232.521806624" y="0.0" type="move" name="bottom"/>
    </contour>
    <contour>
      <point x="164.976947413" y="0.0" type="line"/>
      <point x="164.976947413" y="288.903876612" type="line"/>
      <point x="144.074265239" y="288.903876612" type="line"/>
      <point x="291.202156084" y="0.0" type="line"/>
      <point x="440.991275813" y="0.0" type="line"/>
      <point x="440.991275813" y="500.239988708" type="line"/>
      <point x="300.066665835" y="500.239988708" type="line"/>
      <point x="300.066665835" y="211.336112097" type="line"/>
      <point x="320.969348009" y="211.336112097" type="line"/>
      <point x="173.841457163" y="500.239988708" type="line"/>
      <point x="24.0523374345" y="500.239988708" type="line"/>
      <point x="24.0523374345" y="0.0" type="line"/>
    </contour>
  </outline>
</glyph>
<glyph name="O" format="1">
  <advance width="476.970656245"/>
  <unicode hex="004F"/>
  <outline>
    <contour>
      <point x="14.1523470458" y="500.239988708" type="move" name="topleft"/>
    </contour>
    <contour>
      <point x="238.485328122" y="250.119994354" type="move" name="center"/>
    </contour>
    <contour>
      <point x="238.485328122" y="0.0" type="move" name="bottom"/>
    </contour>
    <contour>
      <point x="238.485328122" y="513.759988403" type="move" name="top"/>
    </contour>
    <contour>
      <point x="302.243259732" y="500.239988708" type="move" name="topright"/>
    </contour>
    <contour>
      <point x="305.419323147" y="0.0" type="move" name="ogonek"/>
    </contour>
    <contour>
      <point x="462.036297052" y="250.119994354" type="curve" smooth="yes"/>
      <point x="462.036297052" y="430.317521145"/>
      <point x="369.70339767" y="507.088213021"/>
      <point x="238.485328122" y="507.088213021" type="curve" smooth="yes"/>
      <point x="107.267258575" y="507.088213021"/>
      <point x="14.9343591929" y="430.317521145"/>
      <point x="14.9343591929" y="250.119994354" type="curve" smooth="yes"/>
      <point x="14.9343591929" y="69.9224675638"/>
      <point x="107.267258575" y="-6.84822431289"/>
      <point x="238.485328122" y="-6.84822431289" type="curve" smooth="yes"/>
      <point x="369.70339767" y="-6.84822431289"/>
      <point x="462.036297052" y="69.9224675638"/>
    </contour>
    <contour>
      <point x="168.959030389" y="253.000443224" type="curve" smooth="yes"/>
      <point x="168.959030389" y="351.132647457"/>
      <point x="192.21735197" y="386.195259447"/>
      <point x="238.485328122" y="386.195259447" type="curve" smooth="yes"/>
      <point x="284.753304275" y="386.195259447"/>
      <point x="308.011625856" y="351.132647457"/>
      <point x="308.011625856" y="247.239545484" type="curve" smooth="yes"/>
      <point x="308.011625856" y="149.107341251"/>
      <point x="284.753304275" y="114.044729262"/>
      <point x="238.485328122" y="114.044729262" type="curve" smooth="yes"/>
      <point x="192.21735197" y="114.044729262"/>
      <point x="168.959030389" y="149.107341251"/>
    </contour>
  </outline>
</glyph>
<glyph name="P" format="1">
  <advance width="413.603730709"/>
  <unicode hex="0050"/>
  <outline>
    <contour>
      <point x="175.166417414" y="0.0" type="line"/>
      <point x="175.166417414" y="128.113406723" type="line"/>
      <point x="184.815340052" y="128.378080119"/>
      <point x="189.832903667" y="127.702080134"/>
      <point x="200.804385815" y="127.702080134" type="curve" smooth="yes"/>
      <point x="327.108818951" y="127.702080134"/>
      <point x="401.447226634" y="192.892547805"/>
      <point x="401.447226634" y="317.189483284" type="curve" smooth="yes"/>
      <point x="401.447226634" y="449.098867526"/>
      <point x="327.108818951" y="507.264661952"/>
      <point x="180.548578947" y="507.264661952" type="curve" smooth="yes"/>
      <point x="123.796851699" y="507.264661952"/>
      <point x="72.3377632299" y="500.151764243"/>
      <point x="24.0523374345" y="489.305968748" type="curve"/>
      <point x="24.0523374345" y="0.0" type="line"/>
    </contour>
    <contour>
      <point x="175.166417414" y="246.625462481" type="curve"/>
      <point x="175.166417414" y="387.841728552" type="line"/>
      <point x="180.842860042" y="389.693279575"/>
      <point x="184.798534863" y="390.192830629"/>
      <point x="195.63488017" y="390.192830629" type="curve" smooth="yes"/>
      <point x="236.069670182" y="390.192830629"/>
      <point x="255.362713976" y="368.327116212"/>
      <point x="255.362713976" y="315.837483314" type="curve" smooth="yes"/>
      <point x="255.362713976" y="262.553830228"/>
      <point x="236.733350678" y="244.773911458"/>
      <point x="201.994209225" y="244.773911458" type="curve" smooth="yes"/>
      <point x="190.228711223" y="244.773911458"/>
      <point x="183.094572246" y="245.449911443"/>
    </contour>
  </outline>
</glyph>
<glyph name="Q" format="1">
  <advance width="476.970656245"/>
  <unicode hex="0051"/>
  <outline>
    <contour>
      <point x="453.968203897" y="-8.72724557174" type="line"/>
      <point x="399.6153294" y="-0.35057235842"/>
      <point x="347.782040047" y="14.7861007023"/>
      <point x="258.750737956" y="48.7041201439" type="curve"/>
      <point x="206.606362318" y="13.3447135156" type="line"/>
      <point x="367.717157665" y="-10.3450816894"/>
      <point x="462.036297052" y="76.6824674113"/>
      <point x="462.036297052" y="250.119994354" type="curve" smooth="yes"/>
      <point x="462.036297052" y="430.317521145"/>
      <point x="369.70339767" y="507.088213021"/>
      <point x="238.485328122" y="507.088213021" type="curve" smooth="yes"/>
      <point x="107.267258575" y="507.088213021"/>
      <point x="14.9343591929" y="430.317521145"/>
      <point x="14.9343591929" y="250.119994354" type="curve" smooth="yes"/>
      <point x="14.9343591929" y="65.5445282843"/>
      <point x="115.731159286" y="-64.8100995732"/>
      <point x="425.3860339" y="-127.327525796" type="curve"/>
    </contour>
    <contour>
      <point x="168.959030389" y="253.000443224" type="curve" smooth="yes"/>
      <point x="168.959030389" y="351.132647457"/>
      <point x="192.21735197" y="386.195259447"/>
      <point x="238.485328122" y="386.195259447" type="curve" smooth="yes"/>
      <point x="284.753304275" y="386.195259447"/>
      <point x="308.011625856" y="351.132647457"/>
      <point x="308.011625856" y="247.239545484" type="curve" smooth="yes"/>
      <point x="308.011625856" y="149.107341251"/>
      <point x="284.753304275" y="114.044729262"/>
      <point x="238.485328122" y="114.044729262" type="curve" smooth="yes"/>
      <point x="192.21735197" y="114.044729262"/>
      <point x="168.959030389" y="149.107341251"/>
    </contour>
  </outline>
</glyph>
<glyph name="R" format="1">
  <advance width="431.323147244"/>
  <unicode hex="0052"/>
  <outline>
    <contour>
      <point x="212.029336454" y="513.759988403" type="move" name="top"/>
    </contour>
    <contour>
      <point x="231.204048597" y="0.0" type="move" name="bottom"/>
    </contour>
    <contour>
      <point x="172.784369852" y="0.0" type="line"/>
      <point x="172.784369852" y="163.558712313" type="line"/>
      <point x="183.890988841" y="163.735161244"/>
      <point x="191.821544414" y="163.059161259"/>
      <point x="204.907201183" y="163.059161259" type="curve" smooth="yes"/>
      <point x="317.848501645" y="163.059161259"/>
      <point x="399.726458827" y="222.430302464"/>
      <point x="399.991931026" y="334.471013752" type="curve" smooth="yes"/>
      <point x="399.991931026" y="450.773969618"/>
      <point x="327.239154309" y="507.264661952"/>
      <point x="181.736001616" y="507.264661952" type="curve" smooth="yes"/>
      <point x="123.796851699" y="507.264661952"/>
      <point x="72.0722910315" y="500.151764243"/>
      <point x="24.0523374345" y="489.305968748" type="curve"/>
      <point x="24.0523374345" y="0.0" type="line"/>
    </contour>
    <contour>
      <point x="434.110605327" y="0.0" type="line"/>
      <point x="304.654116189" y="225.989076822" type="line"/>
      <point x="149.439621583" y="225.989076822" type="line"/>
      <point x="274.264751697" y="0.0" type="line"/>
    </contour>
    <contour>
      <point x="172.784369852" y="279.190319202" type="curve"/>
      <point x="172.784369852" y="391.751075268" type="line"/>
      <point x="180.444651744" y="393.514401826"/>
      <point x="189.562629986" y="394.77817733"/>
      <point x="204.366653821" y="394.77817733" type="curve" smooth="yes"/>
      <point x="234.74230919" y="394.77817733"/>
      <point x="257.612025438" y="376.116013906"/>
      <point x="257.612025438" y="334.559238217" type="curve" smooth="yes"/>
      <point x="257.612025438" y="291.150911505"/>
      <point x="236.33514238" y="277.162319247"/>
      <point x="205.305409481" y="277.162319247" type="curve" smooth="yes"/>
      <point x="190.892391719" y="277.162319247"/>
      <point x="182.563627849" y="277.838319232"/>
    </contour>
  </outline>
</glyph>
<glyph name="S" format="1">
  <advance width="359.383592312"/>
  <unicode hex="0053"/>
  <outline>
    <contour>
      <point x="183.594307005" y="513.759988403" type="move" name="top"/>
    </contour>
    <contour>
      <point x="183.594307005" y="0.0" type="move" name="bottom"/>
    </contour>
    <contour>
      <point x="355.956461146" y="157.65697514" type="curve" smooth="yes"/>
      <point x="355.956461146" y="241.041013672"/>
      <point x="307.144892437" y="286.862359443"/>
      <point x="228.718073833" y="310.169461047" type="curve" smooth="yes"/>
      <point x="162.993108149" y="329.831889331"/>
      <point x="155.069754801" y="337.942726396"/>
      <point x="155.069754801" y="353.164135667" type="curve" smooth="yes"/>
      <point x="155.069754801" y="368.120871541"/>
      <point x="168.015473247" y="384.666810546"/>
      <point x="237.973589657" y="384.666810546" type="curve" smooth="yes"/>
      <point x="264.953323498" y="384.666810546"/>
      <point x="300.932703929" y="380.522586172"/>
      <point x="326.985685817" y="374.115484187" type="curve"/>
      <point x="326.985685817" y="495.684437746" type="line"/>
      <point x="298.150047329" y="502.267988663"/>
      <point x="261.115980328" y="507.088213021"/>
      <point x="222.621816235" y="507.088213021" type="curve" smooth="yes"/>
      <point x="72.0794932556" y="507.088213021"/>
      <point x="3.4271311656" y="443.8077251"/>
      <point x="3.4271311656" y="341.877217845" type="curve" smooth="yes"/>
      <point x="3.4271311656" y="261.902974975"/>
      <point x="53.4285232852" y="210.20271126"/>
      <point x="121.40039969" y="191.480956357" type="curve" smooth="yes"/>
      <point x="193.610228303" y="171.730303608"/>
      <point x="204.313837511" y="161.18014"/>
      <point x="204.313837511" y="144.077383967" type="curve" smooth="yes"/>
      <point x="204.313837511" y="128.386219381"/>
      <point x="191.105047608" y="115.573178162"/>
      <point x="143.775182662" y="115.573178162" type="curve" smooth="yes"/>
      <point x="103.695387603" y="115.573178162"/>
      <point x="57.5289379122" y="124.038075841"/>
      <point x="20.7603431095" y="134.677626666" type="curve"/>
      <point x="20.7603431095" y="13.1086731065" type="line"/>
      <point x="57.3986025544" y="0.0882244654768"/>
      <point x="110.841530288" y="-6.84822431289"/>
      <point x="148.937486082" y="-6.84822431289" type="curve" smooth="yes"/>
      <point x="281.350180523" y="-6.84822431289"/>
      <point x="355.956461146" y="58.048936974"/>
    </contour>
  </outline>
</glyph>
<glyph name="T" format="1">
  <advance width="405.810712718"/>
  <unicode hex="0054"/>
  <outline>
    <contour>
      <point x="203.302364286" y="513.759988403" type="move" name="top"/>
    </contour>
    <contour>
      <point x="203.302364286" y="232.188771386" type="move" name="center"/>
    </contour>
    <contour>
      <point x="203.302364286" y="0.0" type="move" name="bottom"/>
    </contour>
    <contour>
      <point x="278.859404276" y="0.0" type="line"/>
      <point x="278.859404276" y="370.940566182" type="line"/>
      <point x="404.753625407" y="370.940566182" type="line"/>
      <point x="404.753625407" y="500.239988708" type="line"/>
      <point x="1.05708731088" y="500.239988708" type="line"/>
      <point x="1.05708731088" y="370.940566182" type="line"/>
      <point x="126.951308442" y="370.940566182" type="line"/>
      <point x="126.951308442" y="0.0" type="line"/>
    </contour>
  </outline>
</glyph>
<glyph name="U" format="1">
  <advance width="448.511619382"/>
  <unicode hex="0055"/>
  <outline>
    <contour>
      <point x="226.174481276" y="513.759988403" type="move" name="top"/>
    </contour>
    <contour>
      <point x="318.389049007" y="0.0" type="move" name="ogonek"/>
    </contour>
    <contour>
      <point x="306.824203187" y="500.239988708" type="move" name="topright"/>
    </contour>
    <contour>
      <point x="226.174481276" y="0.0" type="move" name="bottom"/>
    </contour>
    <contour>
      <point x="427.89841682" y="209.092565459" type="curve" smooth="yes"/>
      <point x="427.89841682" y="500.239988708" type="line"/>
      <point x="279.827664156" y="500.239988708" type="line"/>
      <point x="279.827664156" y="192.720749881" type="line" smooth="yes"/>
      <point x="279.827664156" y="133.00019907"/>
      <point x="257.484090822" y="115.573178162"/>
      <point x="226.174481276" y="115.573178162" type="curve" smooth="yes"/>
      <point x="194.86487173" y="115.573178162"/>
      <point x="171.727282542" y="133.00019907"/>
      <point x="171.727282542" y="192.720749881" type="curve" smooth="yes"/>
      <point x="171.727282542" y="500.239988708" type="line"/>
      <point x="20.6132025621" y="500.239988708" type="line"/>
      <point x="20.6132025621" y="209.092565459" type="line" smooth="yes"/>
      <point x="20.6132025621" y="53.9333455874"/>
      <point x="90.4601895449" y="-6.84822431289"/>
      <point x="226.174481276" y="-6.84822431289" type="curve" smooth="yes"/>
      <point x="360.300741299" y="-6.84822431289"/>
      <point x="427.89841682" y="53.9333455874"/>
    </contour>
  </outline>
</glyph>
<glyph name="V" format="1">
  <advance width="435.298027996"/>
  <unicode hex="0056"/>
  <outline>
    <contour>
      <point x="333.632093742" y="0.0" type="line"/>
      <point x="443.107851176" y="500.239988708" type="line"/>
      <point x="299.272649981" y="500.239988708" type="line"/>
      <point x="206.997368391" y="55.5523444568" type="line"/>
      <point x="236.108082044" y="55.5523444568" type="line"/>
      <point x="146.876127771" y="500.239988708" type="line"/>
      <point x="-7.80982318054" y="500.239988708" type="line"/>
      <point x="101.665934253" y="0.0" type="line"/>
    </contour>
  </outline>
</glyph>
<glyph name="W" format="1">
  <advance width="687.262419703"/>
  <unicode hex="0057"/>
  <outline>
    <contour>
      <point x="343.498473752" y="513.759988403" type="move" name="top"/>
    </contour>
    <contour>
      <point x="343.498473752" y="0.0" type="move" name="bottom"/>
    </contour>
    <contour>
      <point x="288.783402078" y="0.0" type="line"/>
      <point x="367.714756924" y="395.454177315" type="line"/>
      <point x="328.943116926" y="395.454177315" type="line"/>
      <point x="398.479017625" y="0.0" type="line"/>
      <point x="593.920447837" y="0.0" type="line"/>
      <point x="689.523734872" y="500.239988708" type="line"/>
      <point x="548.731860992" y="500.239988708" type="line"/>
      <point x="468.07973834" y="50.9669977555" type="line"/>
      <point x="509.1006898" y="50.9669977555" type="line"/>
      <point x="430.169334954" y="500.239988708" type="line"/>
      <point x="268.076570603" y="500.239988708" type="line"/>
      <point x="181.205057219" y="50.9669977555" type="line"/>
      <point x="225.402072094" y="50.9669977555" type="line"/>
      <point x="149.381308466" y="500.239988708" type="line"/>
      <point x="-2.2613151691" y="500.239988708" type="line"/>
      <point x="93.3419718656" y="0.0" type="line"/>
    </contour>
  </outline>
</glyph>
<glyph name="X" format="1">
  <advance width="440.728204356"/>
  <unicode hex="0058"/>
  <outline>
    <contour>
      <point x="459.526314874" y="0.0" type="line"/>
      <point x="307.830179605" y="264.287361046" type="line"/>
      <point x="219.967094251" y="383.064090201" type="line"/>
      <point x="159.440443109" y="500.239988708" type="line"/>
      <point x="-5.1695056447" y="500.239988708" type="line"/>
      <point x="132.104008898" y="263.523136596" type="line"/>
      <point x="219.967094251" y="147.127305258" type="line"/>
      <point x="297.431149781" y="0.0" type="line"/>
    </contour>
    <contour>
      <point x="141.841758966" y="0.0" type="line"/>
      <point x="219.967094251" y="147.127305258" type="line"/>
      <point x="307.830179605" y="264.287361046" type="line"/>
      <point x="441.927630732" y="500.239988708" type="line"/>
      <point x="280.493745394" y="500.239988708" type="line"/>
      <point x="219.967094251" y="383.064090201" type="line"/>
      <point x="132.104008898" y="263.523136596" type="line"/>
      <point x="-22.768189787" y="0.0" type="line"/>
    </contour>
  </outline>
</glyph>
<glyph name="Y" format="1">
  <advance width="405.810712718"/>
  <unicode hex="0059"/>
  <outline>
    <contour>
      <point x="-19.0587812335" y="500.239988708" type="move" name="topleft"/>
    </contour>
    <contour>
      <point x="204.09638014" y="513.759988403" type="move" name="top"/>
    </contour>
    <contour>
      <point x="203.302364286" y="0.0" type="move" name="bottom"/>
    </contour>
    <contour>
      <point x="278.859404276" y="0.0" type="line"/>
      <point x="278.859404276" y="262.994952555" type="line"/>
      <point x="248.160658916" y="147.010447805" type="line"/>
      <point x="431.084083201" y="500.239988708" type="line"/>
      <point x="286.853074449" y="500.239988708" type="line"/>
      <point x="189.145215758" y="300.500379342" type="line"/>
      <point x="226.987703061" y="300.500379342" type="line"/>
      <point x="130.472068521" y="500.239988708" type="line"/>
      <point x="-27.124473647" y="500.239988708" type="line"/>
      <point x="158.444069656" y="147.010447805" type="line"/>
      <point x="127.745324296" y="265.287625906" type="line"/>
      <point x="127.745324296" y="0.0" type="line"/>
    </contour>
  </outline>
</glyph>
<glyph name="Z" format="1">
  <advance width="378.423167614"/>
  <unicode hex="005A"/>
  <outline>
    <contour>
      <point x="190.071967711" y="513.759988403" type="move" name="top"/>
    </contour>
    <contour>
      <point x="186.895904295" y="0.0" type="move" name="bottom"/>
    </contour>
    <contour>
      <point x="369.56826083" y="0.0" type="line"/>
      <point x="369.56826083" y="129.387646992" type="line"/>
      <point x="191.864757758" y="129.387646992" type="line"/>
      <point x="190.802868965" y="105.315158186" type="line"/>
      <point x="366.261862056" y="417.939788494" type="line"/>
      <point x="366.261862056" y="500.239988708" type="line"/>
      <point x="12.4267777562" y="500.239988708" type="line"/>
      <point x="12.4267777562" y="370.852341716" type="line"/>
      <point x="183.517483281" y="370.852341716" type="line"/>
      <point x="184.579372075" y="394.924830522" type="line"/>
      <point x="9.12037898303" y="82.3002002144" type="line"/>
      <point x="9.12037898303" y="0.0" type="line"/>
    </contour>
  </outline>
</glyph>
<glyph name="a" format="1">
  <advance width="342.050380368"/>
  <unicode hex="0061"/>
  <outline>
    <contour>
      <point x="169.835366774" y="405.599990845" type="move" name="top"/>
    </contour>
    <contour>
      <point x="321.565112422" y="0.0" type="move" name="ogonek"/>
    </contour>
    <contour>
      <point x="169.569894575" y="0.0" type="move" name="bottom"/>
    </contour>
    <contour>
      <point x="185.141526109" y="37.4148768181" type="curve"/>
      <point x="190.962708543" y="37.4148768181" type="line"/>
      <point x="201.680722199" y="0.0" type="line"/>
      <point x="321.565112422" y="0.0" type="line"/>
      <point x="321.565112422" y="213.583873936" type="line" smooth="yes"/>
      <point x="321.565112422" y="335.942196677"/>
      <point x="272.227400799" y="378.854460591"/>
      <point x="151.976011916" y="378.854460591" type="curve" smooth="yes"/>
      <point x="114.408599777" y="378.854460591"/>
      <point x="70.3611261901" y="374.210685163"/>
      <point x="35.4388330694" y="366.275134277" type="curve"/>
      <point x="35.4388330694" y="253.11264967" type="line"/>
      <point x="62.8143744666" y="260.871751625"/>
      <point x="94.8212748877" y="264.839527068"/>
      <point x="121.142129715" y="264.839527068" type="curve" smooth="yes"/>
      <point x="167.955454713" y="264.839527068"/>
      <point x="177.597175127" y="252.113547562"/>
      <point x="177.597175127" y="220.373669522" type="curve" smooth="yes"/>
      <point x="177.597175127" y="100.255405163" type="line"/>
      <point x="173.24569275" y="99.200199833"/>
      <point x="170.091236007" y="98.6720157919"/>
      <point x="166.668906324" y="98.6720157919" type="curve" smooth="yes"/>
      <point x="156.771316677" y="98.6720157919"/>
      <point x="148.44975503" y="107.047526253"/>
      <point x="148.44975503" y="123.180975918" type="curve" smooth="yes"/>
      <point x="148.44975503" y="141.460445742"/>
      <point x="158.359348384" y="152.539956142"/>
      <point x="175.395878492" y="153.274384854" type="curve" smooth="yes"/>
      <point x="210.274958268" y="154.919691207" type="line"/>
      <point x="190.294226565" y="231.487626669" type="line"/>
      <point x="156.206761901" y="229.842320315" type="line" smooth="yes"/>
      <point x="46.2799798593" y="223.258769399"/>
      <point x="4.88002603272" y="180.376301225"/>
      <point x="4.88002603272" y="105.192486975" type="curve" smooth="yes"/>
      <point x="4.88002603272" y="38.4151416774"/>
      <point x="47.9983469248" y="-7.70067322858"/>
      <point x="110.691988999" y="-7.70067322858" type="curve" smooth="yes"/>
      <point x="143.62083989" y="-7.70067322858"/>
      <point x="171.259452745" y="4.02620416937"/>
    </contour>
  </outline>
</glyph>
<glyph name="o" format="1">
  <advance width="363.476804715"/>
  <unicode hex="006F"/>
  <outline>
    <contour>
      <point x="181.738402357" y="405.599990845" type="move" name="top"/>
    </contour>
    <contour>
      <point x="241.926863736" y="0.0" type="move" name="ogonek"/>
    </contour>
    <contour>
      <point x="174.172444703" y="372.682236262" type="move" name="topright"/>
    </contour>
    <contour>
      <point x="181.738402357" y="186.341118131" type="move" name="center"/>
    </contour>
    <contour>
      <point x="181.738402357" y="0.0" type="move" name="bottom"/>
    </contour>
    <contour>
      <point x="353.436876003" y="184.812669231" type="curve" smooth="yes"/>
      <point x="353.436876003" y="312.017523815"/>
      <point x="292.591936352" y="378.854460591"/>
      <point x="181.738402357" y="378.854460591" type="curve" smooth="yes"/>
      <point x="71.1503405612" y="378.854460591"/>
      <point x="10.039928712" y="315.838646066"/>
      <point x="10.039928712" y="183.28422033" type="curve" smooth="yes"/>
      <point x="10.039928712" y="54.5509168458"/>
      <point x="70.8848683628" y="-7.61244876311"/>
      <point x="181.738402357" y="-7.61244876311" type="curve" smooth="yes"/>
      <point x="292.326464153" y="-7.61244876311"/>
      <point x="353.436876003" y="54.5509168458"/>
    </contour>
    <contour>
      <point x="161.682552347" y="184.6362203" type="curve" smooth="yes"/>
      <point x="161.682552347" y="261.285403717"/>
      <point x="168.276143962" y="273.24599602"/>
      <point x="181.738402357" y="273.24599602" type="curve" smooth="yes"/>
      <point x="195.200660752" y="273.24599602"/>
      <point x="201.794252368" y="261.285403717"/>
      <point x="201.794252368" y="183.460669261" type="curve" smooth="yes"/>
      <point x="201.794252368" y="108.339934745"/>
      <point x="196.78869246" y="97.9960158071"/>
      <point x="181.738402357" y="97.9960158071" type="curve" smooth="yes"/>
      <point x="166.688112255" y="97.9960158071"/>
      <point x="161.682552347" y="108.339934745"/>
    </contour>
  </outline>
</glyph>
<glyph name="AE" format="1">
  <advance width="628.683596704"/>
  <unicode hex="00C6"/>
  <outline>
    <contour>
      <point x="326.314803097" y="513.759988403" type="move" name="top"/>
    </contour>
    <contour>
      <point x="322.199984022" y="0.0" type="move" name="bottom"/>
    </contour>
    <contour>
      <point x="143.564927515" y="0.0" type="line"/>
      <point x="214.797588607" y="373.997463982" type="line"/>
      <point x="331.341969677" y="373.997463982" type="line"/>
      <point x="331.341969677" y="500.239988708" type="line"/>
      <point x="105.894283497" y="500.239988708" type="line"/>
      <point x="-4.90163270494" y="0.0" type="line"/>
    </contour>
    <contour>
      <point x="325.646321118" y="108.155346552" type="line"/>
      <point x="325.646321118" y="231.340973477" type="line"/>
      <point x="108.461883468" y="231.340973477" type="line"/>
      <point x="81.2046737214" y="108.155346552" type="line"/>
    </contour>
    <contour>
      <point x="607.913650629" y="0.0" type="line"/>
      <point x="607.913650629" y="126.242524726" type="line"/>
      <point x="435.208505241" y="126.242524726" type="line"/>
      <point x="411.400033333" y="373.997463982" type="line"/>
      <point x="604.607251856" y="373.997463982" type="line"/>
      <point x="604.607251856" y="500.239988708" type="line"/>
      <point x="260.418689453" y="500.239988708" type="line"/>
      <point x="299.047990385" y="0.0" type="line"/>
    </contour>
    <contour>
      <point x="569.29155192" y="192.568282931" type="line"/>
      <point x="569.29155192" y="317.282358756" type="line"/>
      <point x="372.490855753" y="317.282358756" type="line"/>
      <point x="372.490855753" y="192.568282931" type="line"/>
    </contour>
  </outline>
</glyph>
<glyph name="Oslash" format="1">
  <advance width="476.970656245"/>
  <unicode hex="00D8"/>
  <outline>
    <contour>
      <point x="239.146607877" y="513.759988403" type="move" name="top"/>
    </contour>
    <contour>
      <point x="239.146607877" y="0.0" type="move" name="bottom"/>
    </contour>
    <component base="slashcomb.case" xOffset="40.1014017309"/>
    <component base="O"/>
  </outline>
</glyph>
<glyph name="Thorn" format="1">
  <advance width="416.910129482"/>
  <unicode hex="00DE"/>
  <outline>
    <contour>
      <point x="175.166417414" y="0.0" type="line"/>
      <point x="175.166417414" y="67.8921421061" type="line"/>
      <point x="184.815340052" y="68.1568155026"/>
      <point x="190.626919521" y="67.4808155178"/>
      <point x="202.392417523" y="67.4808155178" type="curve" smooth="yes"/>
      <point x="327.902834805" y="67.4808155178"/>
      <point x="401.447226634" y="131.142834288"/>
      <point x="401.447226634" y="256.968218667" type="curve" smooth="yes"/>
      <point x="401.447226634" y="388.877602909"/>
      <point x="327.108818951" y="447.043397336"/>
      <point x="182.136610655" y="447.043397336" type="curve" smooth="yes"/>
      <point x="181.226663891" y="447.043397336"/>
      <point x="178.067405666" y="446.632070747"/>
      <point x="175.166417414" y="446.984968609" type="curve"/>
      <point x="175.166417414" y="500.239988708" type="line"/>
      <point x="24.0523374345" y="500.239988708" type="line"/>
      <point x="24.0523374345" y="0.0" type="line"/>
    </contour>
    <contour>
      <point x="175.166417414" y="186.404197865" type="curve"/>
      <point x="175.166417414" y="327.620463935" type="line"/>
      <point x="180.842860042" y="329.472014958"/>
      <point x="184.798534863" y="329.971566012"/>
      <point x="195.63488017" y="329.971566012" type="curve" smooth="yes"/>
      <point x="236.069670182" y="329.971566012"/>
      <point x="255.362713976" y="308.105851595"/>
      <point x="255.362713976" y="255.616218698" type="curve" smooth="yes"/>
      <point x="255.362713976" y="202.332565611"/>
      <point x="236.733350678" y="184.552646841"/>
      <point x="201.994209225" y="184.552646841" type="curve" smooth="yes"/>
      <point x="190.228711223" y="184.552646841"/>
      <point x="183.094572246" y="185.228646826"/>
    </contour>
  </outline>
</glyph>
<glyph name="OE" format="1">
  <advance width="629.984549541"/>
  <unicode hex="0152"/>
  <outline>
    <contour>
      <point x="351.694501524" y="513.759988403" type="move" name="top"/>
    </contour>
    <contour>
      <point x="351.694501524" y="0.0" type="move" name="bottom"/>
    </contour>
    <contour>
      <point x="373.130528836" y="0.0" type="curve" smooth="yes"/>
      <point x="609.214603466" y="0.0" type="line"/>
      <point x="609.214603466" y="126.242524726" type="line"/>
      <point x="425.663509806" y="126.242524726" type="line"/>
      <point x="425.663509806" y="373.997463982" type="line"/>
      <point x="605.908204693" y="373.997463982" type="line"/>
      <point x="605.908204693" y="500.239988708" type="line"/>
      <point x="373.528737133" y="500.239988708" type="line" smooth="yes"/>
      <point x="343.235402295" y="500.239988708"/>
      <point x="309.107125028" y="503.443539701"/>
      <point x="279.882881208" y="503.443539701" type="curve" smooth="yes"/>
      <point x="117.188855636" y="503.443539701"/>
      <point x="14.9343591929" y="425.203990402"/>
      <point x="14.9343591929" y="250.119994354" type="curve" smooth="yes"/>
      <point x="14.9343591929" y="78.798691831"/>
      <point x="101.701945374" y="-3.37999992371"/>
      <point x="270.08441728" y="-3.37999992371" type="curve" smooth="yes"/>
      <point x="299.706869399" y="-3.37999992371"/>
      <point x="342.969930097" y="0.0"/>
    </contour>
    <contour>
      <point x="168.959030389" y="250.119994354" type="curve" smooth="yes"/>
      <point x="168.959030389" y="353.338259094"/>
      <point x="201.347333918" y="381.786361676"/>
      <point x="250.238822417" y="381.786361676" type="curve" smooth="yes"/>
      <point x="254.725441635" y="381.786361676"/>
      <point x="263.843419877" y="381.962810607"/>
      <point x="276.931477388" y="381.639708485" type="curve"/>
      <point x="276.931477388" y="117.836055774" type="line"/>
      <point x="263.179739381" y="117.424729185"/>
      <point x="255.780128205" y="117.512953651"/>
      <point x="248.778725326" y="117.512953651" type="curve" smooth="yes"/>
      <point x="200.152709026" y="117.512953651"/>
      <point x="168.959030389" y="146.578627491"/>
    </contour>
    <contour>
      <point x="570.592504757" y="192.568282931" type="line"/>
      <point x="570.592504757" y="317.282358756" type="line"/>
      <point x="383.317598095" y="317.282358756" type="line"/>
      <point x="383.317598095" y="192.568282931" type="line"/>
    </contour>
  </outline>
</glyph>
<glyph name="Ohorn" format="1">
  <advance width="476.970656245"/>
  <unicode hex="01A0"/>
  <outline>
    <contour>
      <point x="238.485328122" y="513.759988403" type="move" name="top"/>
    </contour>
    <contour>
      <point x="238.485328122" y="0.0" type="move" name="bottom"/>
    </contour>
    <contour>
      <point x="462.036297052" y="250.119994354" type="curve" smooth="yes"/>
      <point x="462.036297052" y="356.162604741"/>
      <point x="430.159731989" y="426.966154208"/>
      <point x="376.856742579" y="466.115724597" type="curve"/>
      <point x="353.69994746" y="436.076093381" type="line"/>
      <point x="421.032150782" y="436.076093381"/>
      <point x="469.97645559" y="463.116092771"/>
      <point x="469.97645559" y="543.973743047" type="curve" smooth="yes"/>
      <point x="469.97645559" y="564.253742589"/>
      <point x="468.91936828" y="583.211537901"/>
      <point x="463.629130242" y="600.28798645" type="curve"/>
      <point x="362.405312956" y="600.28798645" type="line"/>
      <point x="366.240255384" y="582.44731345"/>
      <point x="367.164606596" y="566.634640405"/>
      <point x="367.164606596" y="553.056211984" type="curve" smooth="yes"/>
      <point x="367.164606596" y="512.819315022"/>
      <point x="351.696902265" y="500.416437639"/>
      <point x="321.014962094" y="500.416437639" type="curve" smooth="yes"/>
      <point x="292.843004102" y="500.416437639"/>
      <point x="273.400419019" y="507.088213021"/>
      <point x="238.485328122" y="507.088213021" type="curve" smooth="yes"/>
      <point x="107.267258575" y="507.088213021"/>
      <point x="14.9343591929" y="430.317521145"/>
      <point x="14.9343591929" y="250.119994354" type="curve" smooth="yes"/>
      <point x="14.9343591929" y="69.9224675638"/>
      <point x="104.619738815" y="-6.84822431289"/>
      <point x="238.485328122" y="-6.84822431289" type="curve" smooth="yes"/>
      <point x="372.35091743" y="-6.84822431289"/>
      <point x="462.036297052" y="69.9224675638"/>
    </contour>
    <contour>
      <point x="168.959030389" y="253.000443224" type="curve" smooth="yes"/>
      <point x="168.959030389" y="351.132647457"/>
      <point x="192.21735197" y="386.195259447"/>
      <point x="238.485328122" y="386.195259447" type="curve" smooth="yes"/>
      <point x="284.753304275" y="386.195259447"/>
      <point x="308.011625856" y="351.132647457"/>
      <point x="308.011625856" y="247.239545484" type="curve" smooth="yes"/>
      <point x="308.011625856" y="149.107341251"/>
      <point x="284.753304275" y="114.044729262"/>
      <point x="238.485328122" y="114.044729262" type="curve" smooth="yes"/>
      <point x="192.21735197" y="114.044729262"/>
      <point x="168.959030389" y="149.107341251"/>
    </contour>
  </outline>
</glyph>
<glyph name="Uhorn" format="1">
  <advance width="452.481698651"/>
  <unicode hex="01AF"/>
  <outline>
    <contour>
      <point x="224.586449568" y="513.759988403" type="move" name="top"/>
    </contour>
    <contour>
      <point x="224.586449568" y="0.0" type="move" name="bottom"/>
    </contour>
    <contour>
      <point x="473.517116924" y="600.28798645" type="curve"/>
      <point x="372.293299637" y="600.28798645" type="line"/>
      <point x="376.128242066" y="582.44731345"/>
      <point x="377.052593278" y="566.634640405"/>
      <point x="377.052593278" y="553.056211984" type="curve" smooth="yes"/>
      <point x="377.052593278" y="512.819315022"/>
      <point x="361.584888947" y="500.239988708"/>
      <point x="330.902948776" y="500.239988708" type="curve" smooth="yes"/>
      <point x="279.827664156" y="500.239988708" type="line"/>
      <point x="279.827664156" y="192.720749881" type="line" smooth="yes"/>
      <point x="279.827664156" y="133.00019907"/>
      <point x="257.484090822" y="115.573178162"/>
      <point x="226.174481276" y="115.573178162" type="curve" smooth="yes"/>
      <point x="194.86487173" y="115.573178162"/>
      <point x="171.727282542" y="133.00019907"/>
      <point x="171.727282542" y="192.720749881" type="curve" smooth="yes"/>
      <point x="171.727282542" y="500.239988708" type="line"/>
      <point x="20.6132025621" y="500.239988708" type="line"/>
      <point x="20.6132025621" y="209.092565459" type="line" smooth="yes"/>
      <point x="20.6132025621" y="53.9333455874"/>
      <point x="90.4601895449" y="-6.84822431289"/>
      <point x="226.174481276" y="-6.84822431289" type="curve" smooth="yes"/>
      <point x="360.300741299" y="-6.84822431289"/>
      <point x="427.89841682" y="53.9333455874"/>
      <point x="427.89841682" y="209.092565459" type="curve" smooth="yes"/>
      <point x="427.89841682" y="446.422337822" type="line"/>
      <point x="460.429059414" y="460.67792898"/>
      <point x="479.864442272" y="491.127724032"/>
      <point x="479.864442272" y="543.973743047" type="curve" smooth="yes"/>
      <point x="479.864442272" y="564.253742589"/>
      <point x="478.807354961" y="583.211537901"/>
    </contour>
  </outline>
</glyph>
<glyph name="Germandbls" format="1">
  <advance width="566.250625345"/>
  <outline>
    <contour>
      <point x="562.82349418" y="157.65697514" type="curve" smooth="yes"/>
      <point x="562.82349418" y="240.276789222"/>
      <point x="516.393973032" y="282.277012742"/>
      <point x="441.143217843" y="308.641012146" type="curve" smooth="yes"/>
      <point x="385.74045826" y="328.30344043"/>
      <point x="376.229073203" y="336.414277496"/>
      <point x="376.229073203" y="353.164135667" type="curve" smooth="yes"/>
      <point x="376.229073203" y="369.649320442"/>
      <point x="388.380775796" y="386.195259447"/>
      <point x="450.398733667" y="386.195259447" type="curve" smooth="yes"/>
      <point x="475.7904358" y="386.195259447"/>
      <point x="510.181784524" y="382.051035073"/>
      <point x="535.440750558" y="375.643933087" type="curve"/>
      <point x="535.440750558" y="495.684437746" type="line"/>
      <point x="507.399127924" y="502.267988663"/>
      <point x="471.95309263" y="507.088213021"/>
      <point x="435.840976099" y="507.088213021" type="curve" smooth="yes"/>
      <point x="291.650779951" y="507.088213021"/>
      <point x="226.174481276" y="443.8077251"/>
      <point x="226.174481276" y="341.877217845" type="curve" smooth="yes"/>
      <point x="226.174481276" y="262.667199425"/>
      <point x="273.793825834" y="213.259609061"/>
      <point x="338.589638823" y="193.009405258" type="curve" smooth="yes"/>
      <point x="401.271277191" y="173.258752509"/>
      <point x="412.768902252" y="162.708588901"/>
      <point x="412.768902252" y="144.077383967" type="curve" smooth="yes"/>
      <point x="412.768902252" y="126.857770481"/>
      <point x="400.354128203" y="114.044729262"/>
      <point x="360.170405941" y="114.044729262" type="curve" smooth="yes"/>
      <point x="321.67864259" y="114.044729262"/>
      <point x="277.894240461" y="122.509626941"/>
      <point x="242.713677366" y="133.149177765" type="curve"/>
      <point x="242.713677366" y="13.1086731065" type="line"/>
      <point x="277.763905103" y="0.852448915695"/>
      <point x="328.824785275" y="-6.84822431289"/>
      <point x="365.332709362" y="-6.84822431289" type="curve" smooth="yes"/>
      <point x="491.393276972" y="-6.84822431289"/>
      <point x="562.82349418" y="58.048936974"/>
    </contour>
    <contour>
      <point x="175.166417414" y="0.0" type="line"/>
      <point x="175.166417414" y="340.380890187" type="line" smooth="yes"/>
      <point x="175.166417414" y="372.58936079"/>
      <point x="190.363848064" y="386.959483897"/>
      <point x="209.763219802" y="386.959483897" type="curve" smooth="yes"/>
      <point x="223.910765365" y="386.959483897"/>
      <point x="234.619176056" y="381.962810607"/>
      <point x="244.931779191" y="371.205239578" type="curve"/>
      <point x="335.039374524" y="476.255724368" type="line"/>
      <point x="307.393559445" y="494.802193091"/>
      <point x="264.929316084" y="507.088213021"/>
      <point x="209.763219802" y="507.088213021" type="curve" smooth="yes"/>
      <point x="87.5471975866" y="507.088213021"/>
      <point x="24.0523374345" y="438.664398619"/>
      <point x="24.0523374345" y="321.716401259" type="curve" smooth="yes"/>
      <point x="24.0523374345" y="0.0" type="line"/>
    </contour>
  </outline>
</glyph>
<glyph name="Schwa" format="1">
  <advance width="466.515714046"/>
  <outline>
    <contour>
      <point x="236.764560316" y="498.475499399" type="move" name="top"/>
    </contour>
    <contour>
      <point x="236.764560316" y="0.0" type="move" name="bottom"/>
    </contour>
    <contour>
      <point x="451.581354853" y="242.477749852" type="curve" smooth="yes"/>
      <point x="451.581354853" y="420.206154361"/>
      <point x="361.369832317" y="507.088213021"/>
      <point x="179.086081115" y="507.088213021" type="curve" smooth="yes"/>
      <point x="137.423055831" y="507.088213021"/>
      <point x="83.9801280978" y="502.267988663"/>
      <point x="43.6396623234" y="492.803988876" type="curve"/>
      <point x="43.6396623234" y="372.763484217" type="line"/>
      <point x="79.3487690739" y="382.051035073"/>
      <point x="124.849137528" y="387.723708347"/>
      <point x="163.603972336" y="387.723708347" type="curve" smooth="yes"/>
      <point x="263.182140122" y="387.723708347"/>
      <point x="301.526762926" y="353.248871877"/>
      <point x="301.526762926" y="239.509076517" type="curve" smooth="yes"/>
      <point x="301.526762926" y="138.408198948"/>
      <point x="284.620568176" y="110.987831461"/>
      <point x="235.972945203" y="110.987831461" type="curve" smooth="yes"/>
      <point x="182.561227107" y="110.987831461"/>
      <point x="167.240663324" y="142.993545649"/>
      <point x="167.240663324" y="239.420852051" type="curve"/>
      <point x="106.900259915" y="184.015160786" type="line"/>
      <point x="354.455551452" y="184.015160786" type="line"/>
      <point x="354.455551452" y="293.444747608" type="line"/>
      <point x="11.6279604197" y="293.444747608" type="line"/>
      <point x="11.6279604197" y="242.477749852" type="line" smooth="yes"/>
      <point x="11.6279604197" y="67.4533452822"/>
      <point x="110.049915175" y="-6.84822431289"/>
      <point x="235.178929349" y="-6.84822431289" type="curve" smooth="yes"/>
      <point x="355.5438484" y="-6.84822431289"/>
      <point x="451.581354853" y="75.2720387154"/>
    </contour>
  </outline>
</glyph>
<glyph name="slashcomb.case" format="1">
  <advance width="468.229279629"/>
  <outline>
    <contour>
      <point x="198.383926392" y="250.119994354" type="move" name="_center"/>
    </contour>
    <contour>
      <point x="397.190068494" y="481.075948727" type="line"/>
      <point x="333.282595597" y="523.225150941" type="line"/>
      <point x="-0.422215711175" y="19.1640399819" type="line"/>
      <point x="63.4852571867" y="-22.9851622329" type="line"/>
    </contour>
  </outline>
</glyph>
<glyph name="slashcomb" format="1">
  <advance width="396.767852783"/>
  <outline>
    <contour>
      <point x="198.383926392" y="186.341118131" type="move" name="_center"/>
    </contour>
    <contour>
      <point x="137.290319732" y="22.9828367295" type="line"/>
      <point x="164.945737776" y="80.857650276" type="line"/>
      <point x="280.643286682" y="263.431423876" type="line"/>
      <point x="322.590990095" y="307.550197318" type="line"/>
      <point x="352.614051252" y="353.518196281" type="line"/>
      <point x="289.500594208" y="395.667398495" type="line"/>
      <point x="259.477533051" y="349.699399533" type="line"/>
      <point x="231.822115008" y="291.824585986" type="line"/>
      <point x="116.124566101" y="109.250812387" type="line"/>
      <point x="74.1768626879" y="65.1320389443" type="line"/>
      <point x="44.1538015307" y="19.1640399819" type="line"/>
      <point x="107.267258575" y="-22.9851622329" type="line"/>
    </contour>
  </outline>
</glyph>
<glyph name="slashshortcomb.case" format="1">
  <advance width="312.152853086"/>
  <outline>
    <contour>
      <point x="132.255950928" y="261.611994095" type="move" name="_slash"/>
    </contour>
    <contour>
      <point x="325.272120234" y="292.762933864" type="line"/>
      <point x="281.079906842" y="381.852929665" type="line"/>
      <point x="-1.23063601316" y="257.383033511" type="line"/>
      <point x="42.9615773793" y="168.29303771" type="line"/>
    </contour>
  </outline>
</glyph>
<glyph name="slashshortcomb" format="1">
  <advance width="264.511901855"/>
  <outline>
    <contour>
      <point x="132.255950928" y="261.611994095" type="move" name="_slash"/>
    </contour>
    <contour>
      <point x="266.145547649" y="270.309443928" type="line"/>
      <point x="225.129397672" y="353.373868592" type="line"/>
      <point x="-1.63364579347" y="252.914544262" type="line"/>
      <point x="39.3825041836" y="169.850119598" type="line"/>
    </contour>
  </outline>
</glyph>
<glyph name="strokelongcomb.case" format="1">
  <advance width="461.34380766"/>
  <outline>
    <contour>
      <point x="232.125999068" y="395.608969769" type="move" name="_center"/>
    </contour>
    <contour>
      <point x="462.135422772" y="351.078869738" type="line"/>
      <point x="462.135422772" y="440.1390698" type="line"/>
      <point x="1.32255950928" y="440.1390698" type="line"/>
      <point x="1.32255950928" y="351.078869738" type="line"/>
    </contour>
  </outline>
</glyph>
<glyph name="strokeshortcomb.D" format="1">
  <advance width="396.767852783"/>
  <outline>
    <contour>
      <point x="102.865360629" y="372.682236262" type="move" name="_stroke"/>
    </contour>
    <contour>
      <point x="311.882579405" y="324.33101398" type="line"/>
      <point x="311.882579405" y="421.033458544" type="line"/>
      <point x="79.0784953928" y="421.033458544" type="line"/>
      <point x="79.0784953928" y="324.33101398" type="line"/>
    </contour>
  </outline>
</glyph>
<glyph name="strokeshortcomb.case" format="1">
  <advance width="391.55443847"/>
  <outline>
    <contour>
      <point x="187.837060696" y="365.03999176" type="move" name="_center"/>
    </contour>
    <contour>
      <point x="340.486356074" y="316.688769478" type="line"/>
      <point x="340.486356074" y="413.391214042" type="line"/>
      <point x="35.1877653191" y="413.391214042" type="line"/>
      <point x="35.1877653191" y="316.688769478" type="line"/>
    </contour>
  </outline>
</glyph>
<glyph name="strokeshortcomb.d" format="1">
  <advance width="396.767852783"/>
  <outline>
    <contour>
      <point x="198.383926392" y="372.682236262" type="move" name="_stroke"/>
    </contour>
    <contour>
      <point x="220.191753847" y="324.33101398" type="line"/>
      <point x="220.191753847" y="421.033458544" type="line"/>
      <point x="-21.7495143378" y="421.033458544" type="line"/>
      <point x="-21.7495143378" y="324.33101398" type="line"/>
    </contour>
  </outline>
</glyph>
<glyph name="strokeshortcomb.h" format="1">
  <advance width="396.767852783"/>
  <outline>
    <contour>
      <point x="198.383926392" y="372.682236262" type="move" name="_stroke"/>
    </contour>
    <contour>
      <point x="418.517367121" y="324.33101398" type="line"/>
      <point x="418.517367121" y="421.033458544" type="line"/>
      <point x="176.576098937" y="421.033458544" type="line"/>
      <point x="176.576098937" y="324.33101398" type="line"/>
    </contour>
  </outline>
</glyph>
